<svg xmlns="http://www.w3.org/2000/svg" xmlns:xlink="http://www.w3.org/1999/xlink"><symbol id="icon-circle-first" viewBox="0 0 60 60">
  <circle r="28" cx="30" cy="30" fill="none" stroke="#ff8d30" stroke-width="3" stroke-dasharray="180 5" stroke-dashoffset="52"/>
</symbol><symbol id="icon-circle-second" viewBox="0 0 60 60">
  <circle r="28" cx="30" cy="30" fill="none" stroke="#ff8d30" stroke-width="3" stroke-dasharray="180 33" stroke-dashoffset="82"/>
</symbol><symbol id="icon-circle-third" viewBox="0 0 50 50">
  <circle class="ideal-traveler__round" r="22.5" cx="25" cy="25" fill="none" stroke="#ff8d30" stroke-width="3" stroke-dasharray="100 110" stroke-dashoffset="105"/>
</symbol><symbol id="icon-circle-thourth" viewBox="0 0 50 50">
  <circle class="ideal-traveler__round" r="22.5" cx="25" cy="25" fill="none" stroke="#ff8d30" stroke-width="3" stroke-dasharray="51 72" stroke-dashoffset="140"/>
</symbol><symbol id="icon-contacts-mail" viewBox="0 0 36 26">
  <path d="M0 23c0 1.6 1.3 3 3 3h30c1.7 0 3-1.3 3-3V3c0-1.6-1.3-3-3-3H3C1.3 0 0 1.3 0 3v20zm11-10L4.2 6.2c-.6-.6-.6-1.5 0-2 .6-.6 1.5-.6 2.1 0l11 10.9c.4.4 1.2.4 1.6 0l11-10.9c.6-.6 1.5-.6 2.1 0 .6.6.6 1.5 0 2L25 13l6.9 6.8c.6.6.6 1.5 0 2-.6.6-1.5.6-2.1 0L22.9 15s-2.1 2.2-2.5 2.5c-.6.6-1.4 1-2.4 1-.9 0-1.8-.4-2.4-1L13.1 15l-6.9 6.8c-.6.6-1.5.6-2.1 0-.6-.6-.6-1.5 0-2L11 13z"/>
</symbol><symbol id="icon-contacts-phone" viewBox="0 0 36 36">
  <path d="M18 0C11.6 0 5.2 1.1 2.8 3.4.9 5.3.2 8.7 0 10.8v.3c0 .8.7 1.5 1.5 1.5.1 0 3.7-.3 5.9-.5h.2c.8 0 1.5-.7 1.5-1.5v-3C9 6.7 9.7 6 10.7 6h14.7c.8 0 1.6.7 1.6 1.7v3c0 .8.7 1.5 1.5 1.5h.2c2.2.2 5.8.5 5.9.5.8 0 1.5-.7 1.5-1.5v-.3c-.2-2.1-.9-5.5-2.8-7.4C30.8 1.1 24.4 0 18 0zm0 19.5c-1.7 0-3 1.3-3 3s1.3 3 3 3 3-1.3 3-3-1.3-3-3-3zm-2.3-6.8v-1.9c0-1-.8-1.9-1.9-1.9s-1.8.9-1.8 2v1.9L1.9 23.6c-.7.7-1.1 1.6-1.1 2.7v3c0 1.7 1.3 3 3 3h.8v1.9c0 1 .8 1.9 1.9 1.9s1.9-.8 1.9-1.9v-1.9h19.5v1.9c0 1 .8 1.9 1.9 1.9 1 0 1.9-.8 1.9-1.9v-1.9h.8c1.7 0 3-1.3 3-3v-3c0-1.1-.4-2-1.1-2.7L24 12.7v-1.9c0-1-.8-1.9-1.9-1.9s-1.9.8-1.9 1.9v1.9h-4.5zm2.3 3.8c3.3 0 6 2.7 6 6s-2.7 6-6 6-6-2.7-6-6 2.7-6 6-6z"/>
</symbol><symbol id="icon-facebook" viewBox="0 0 11 21">
  <path d="M7.8 21H2.2v-9.8H0V6.4h2.1c-.1-2.2.3-3.8 1.3-4.9C4.2.6 5.5.1 7.1 0H11v4.7H7.9c-.1.2-.2.8-.2 1.7H11v4.8H7.8V21zm-4.4-1.1h3.1v-9.8h3.2V7.5H6.5v-.6c0-1.5 0-2.9.8-3.4l.2-.1h2.3V1.1H7.1c-1.2.1-2.2.5-2.8 1.2-.8.9-1.1 2.5-.9 4.6l.1.6H1.2v2.6h2.2v9.8z"/>
</symbol><symbol id="icon-htmlacademy" viewBox="0 0 27 34">
  <path d="M13.6 0h-.2L0 1.4V26l13.5 8L27 26V1.4L13.6 0zm5.7 16.8l-.9.5-5-3v1.4l3.8 2.3-.8.5-3-1.8v1.4l1.9 1.1-1.8 1.1L2 13.6l11.4-6.8L25 13.5l-4.5 2.6-7.1-4.2v1.4l5.9 3.5zM1.9 15.1l11.4 6.8v1l-8-4.7v1.4l8 4.8v1.1l-8-4.7v1.4l8 4.8 8.2-4.9V17l3.4-2v10l-11.6 6.9-11.4-7v-9.8zm0-3v-9l11.6-1.2 11.6 1.2v9L13.5 5.3v-.1h-.2v.1L1.9 12.1z" fill="#192144"/>
</symbol><symbol id="icon-instagram" viewBox="0 0 23 23">
  <path class="st0" d="M17 1.5c2.5 0 4.5 2 4.5 4.5v11c0 2.5-2 4.5-4.5 4.5H6c-2.5 0-4.5-2-4.5-4.5V6c0-2.5 2-4.5 4.5-4.5h11M17 0H6C2.7 0 0 2.7 0 6v11c0 3.3 2.7 6 6 6h11c3.3 0 6-2.7 6-6V6c0-3.3-2.7-6-6-6z"/>
  <path class="st0" d="M11.5 7.1c2.4 0 4.4 2 4.4 4.4 0 2.4-2 4.4-4.4 4.4-2.4 0-4.4-2-4.4-4.4 0-2.4 2-4.4 4.4-4.4m0-1.5c-3.3 0-5.9 2.7-5.9 5.9s2.7 5.9 5.9 5.9 5.9-2.7 5.9-5.9-2.6-5.9-5.9-5.9z"/>
  <circle class="st0" cx="17.6" cy="5.4" r="1.3"/>
</symbol><symbol id="icon-menu" viewBox="0 0 25 11">
  <g fill="#fff">
    <path d="M1.5 3h22c.8 0 1.5-.7 1.5-1.5S24.3 0 23.5 0h-22C.7 0 0 .7 0 1.5S.7 3 1.5 3zM23.5 8h-22C.7 8 0 8.7 0 9.5S.7 11 1.5 11h22c.8 0 1.5-.7 1.5-1.5S24.3 8 23.5 8z"/>
  </g>
</symbol><symbol id="icon-vk" viewBox="0 0 30 15.8">
  <path d="M23.9 15.8c-.4 0-1.2-.1-2.1-.6-.6-.4-1.2-1-1.8-1.5-.4-.4-1.2-1.2-1.4-1.2-.3.1-.5.9-.5 1.6 0 .1 0 .8-.5 1.2-.4.4-1.1.5-1.2.5h-1.9c-1 0-4.4-.2-7.4-3C3.4 9.4.3 3 .1 2.7 0 2.2-.1 1.5.3 1.1.7.7 1.4.6 1.7.6H5.9c.1 0 .6.1 1 .3.4.2.6.7.6.7S8.1 3 9 4.3c1.3 2 1.9 2.5 2.1 2.6.2-.4.3-1.7.2-2.9 0-.5-.1-1.1-.3-1.3-.1-.1-.4-.3-.8-.3l-.7-.6c-.1-.7.6-1.2 1.1-1.4.7-.3 1.8-.4 3.1-.4h.7c1.2 0 1.6.1 2.1.2 1.7.4 1.6 1.7 1.6 3.3v2.1c0 .4 0 1 .1 1.3.2-.1.9-.7 2.1-2.5.8-1.2 1.4-2.5 1.5-2.8.2-.4.6-.9 1.6-.9h4.7c1 0 1.6.3 1.8.9.3.6.2 1.7-2.4 4.6-.4.4-.7.8-1 1.1-.6.7-1.2 1.4-1.2 1.6.1.1.7.6 1.3 1.1 1.5 1.2 2.5 2.3 3 3.1.5.8.4 1.3.3 1.7-.4.9-1.6 1-1.9 1h-4.1zm-5.3-4.9c.9 0 1.7.8 2.5 1.6.5.5 1 1 1.5 1.3.7.4 1.3.4 1.4.4h3.9c.2 0 .4-.1.5-.1 0 0 0-.1-.1-.2-.4-.7-1.4-1.7-2.7-2.7-1.2-1-1.8-1.5-1.9-2.2-.1-.8.5-1.4 1.6-2.7.3-.3.6-.7 1-1.1 1.6-1.8 2-2.6 2.1-3H23.1c-.2.4-.8 1.8-1.6 3-1.9 2.8-2.8 3.2-3.4 3.2-.2 0-.4 0-.6-.1-1-.6-1-1.8-.9-2.8v-.4-1.7c.1-1.7 0-1.7-.4-1.8-.4-.1-.7-.1-1.9-.2h-.7c-.6 0-1.3 0-1.9.1l.3.3c.6.7.6 2 .6 2.2.1 1.6.1 3.8-1 4.3-.2.1-.4.1-.6.1-.9 0-1.9-.9-3.4-3.3-.8-1.2-1.5-2.7-1.5-2.8L6 2.2c-.1 0-.2-.1-.3-.1h-4-.1c.6 1.2 3.4 6.6 6.5 9.5 2.7 2.5 5.8 2.6 6.4 2.6h1.9s.2-.1.3-.1V14c0-.3 0-2.6 1.6-3 .1-.1.2-.1.3-.1z"/>
</symbol></svg>
